<?xml version="1.0" encoding="utf-8"?>
<!-- Generator: Adobe Illustrator 23.0.3, SVG Export Plug-In . SVG Version: 6.00 Build 0)  -->
<svg version="1.1" xmlns="http://www.w3.org/2000/svg" xmlns:xlink="http://www.w3.org/1999/xlink" x="0px" y="0px"
	 viewBox="0 0 311.1 217.1" style="enable-background:new 0 0 311.1 217.1;" xml:space="preserve">
<style type="text/css">
	.st0{fill:#EAE7D6;}
	.st1{fill:#1B1F23;}
	.st2{fill:#FBF5EB;}
	.st3{fill:#C3A47F;}
	.st4{fill-rule:evenodd;clip-rule:evenodd;fill:#C3A47F;}
	.st5{stroke:#000000;stroke-width:2;stroke-miterlimit:10;}
	.st6{fill:none;stroke:#C3A47F;stroke-width:5;stroke-miterlimit:10;}
	.st7{stroke:#000000;stroke-width:0.75;stroke-miterlimit:10;}
</style>
<g id="Layer_1">
</g>
<g id="logo_final">
	<path id="productions_4_" class="st0" d="M50.4,208.5c0,1.2-0.3,2.2-0.8,2.7c-0.6,0.6-1.4,0.9-2.6,0.9h-0.7c-0.1,0-0.2,0.1-0.3,0.1
		c-0.1,0.1-0.1,0.2-0.1,0.4v3.9c0,0.1-0.1,0.2-0.2,0.3c-0.1,0.1-0.2,0.2-0.3,0.2h-0.9c-0.1,0-0.2,0-0.3-0.1
		c-0.1-0.1-0.1-0.2-0.1-0.3v-11c0-0.1,0.1-0.2,0.1-0.3c0.1-0.1,0.2-0.2,0.3-0.2h2.6c1.1,0,2,0.3,2.5,0.8
		C50.1,206.4,50.4,207.3,50.4,208.5L50.4,208.5z M48.5,208.6c0-0.7-0.1-1.2-0.4-1.5c-0.3-0.3-0.8-0.4-1.5-0.4h-0.3
		c-0.1,0-0.3,0.1-0.4,0.2c-0.1,0.1-0.1,0.2-0.1,0.3v2.7c0,0.1,0,0.3,0.1,0.3c0.1,0.1,0.2,0.1,0.3,0.1h0.3c0.7,0,1.2-0.1,1.5-0.4
		C48.3,209.8,48.5,209.3,48.5,208.6L48.5,208.6z M72.2,216.5c0.1,0.1,0.1,0.2,0,0.3c-0.1,0.1-0.2,0.2-0.3,0.2h-1
		c-0.2,0-0.4-0.1-0.5-0.2c0-0.1-0.1-0.2-0.2-0.3l-1.3-3.9c-0.1-0.2-0.1-0.3-0.2-0.4c-0.1-0.1-0.2-0.1-0.4-0.1h-0.2
		c-0.1,0-0.2,0-0.3,0.1c-0.1,0.1-0.1,0.2-0.1,0.3v3.9c0,0.1,0,0.2-0.1,0.3c-0.1,0.1-0.2,0.1-0.3,0.1h-0.9c-0.1,0-0.2,0-0.3-0.1
		c-0.1-0.1-0.1-0.2-0.1-0.3v-11c0-0.1,0.1-0.2,0.2-0.3c0.1-0.1,0.2-0.2,0.3-0.2h2.4c2.3,0,3.4,1.1,3.4,3.4c0,1.3-0.4,2.3-1.2,2.9
		c-0.1,0-0.1,0.1-0.2,0.2c0,0.1-0.1,0.2-0.1,0.3L72.2,216.5L72.2,216.5z M70.3,208.5c0-0.7-0.1-1.1-0.4-1.4
		c-0.3-0.3-0.8-0.4-1.5-0.4h-0.2c-0.1,0-0.2,0.1-0.3,0.2c-0.1,0.1-0.2,0.2-0.2,0.3v2.7c0,0.1,0,0.2,0.2,0.3c0.1,0.1,0.2,0.2,0.3,0.1
		h0.2c0.7,0,1.2-0.1,1.5-0.4C70.1,209.7,70.3,209.2,70.3,208.5L70.3,208.5z M94.2,213.2c0,1.3-0.2,2.2-0.7,2.8
		c-0.6,0.8-1.5,1.2-2.6,1.2c-1.2,0-2-0.4-2.6-1.2c-0.5-0.7-0.7-1.6-0.7-2.8v-4.3c0-1.3,0.2-2.2,0.7-2.8c0.6-0.8,1.4-1.1,2.6-1.1
		c1.2,0,2.1,0.4,2.6,1.1c0.5,0.7,0.7,1.6,0.7,2.8V213.2L94.2,213.2z M92.3,213.1v-4.3c0-0.9-0.1-1.5-0.3-1.8
		c-0.2-0.3-0.6-0.5-1.1-0.5c-0.5,0-0.9,0.2-1.1,0.5c-0.2,0.3-0.3,0.9-0.3,1.8v4.3c0,0.8,0.1,1.4,0.3,1.8c0.2,0.3,0.6,0.5,1.1,0.5
		c0.5,0,0.9-0.2,1.1-0.5C92.2,214.6,92.3,214,92.3,213.1L92.3,213.1z M116.1,213.2c0,2.5-1.2,3.7-3.5,3.7h-2.5
		c-0.1,0-0.2-0.1-0.3-0.2c-0.1-0.1-0.1-0.2-0.1-0.3v-11c0-0.1,0-0.2,0.1-0.3c0.1-0.1,0.2-0.2,0.3-0.2h2.5c2.3,0,3.5,1.2,3.5,3.7
		V213.2L116.1,213.2z M114.3,212.7v-3.5c0-0.9-0.1-1.6-0.4-2c-0.3-0.4-0.7-0.6-1.4-0.6h-0.5c-0.1,0-0.2,0-0.3,0.1
		c-0.1,0.1-0.1,0.2-0.1,0.3v7.7c0,0.1,0,0.2,0.1,0.3c0.1,0.1,0.2,0.1,0.3,0.1h0.5c0.6,0,1.1-0.2,1.4-0.6
		C114.2,214.3,114.3,213.7,114.3,212.7L114.3,212.7z M138.1,213.1c0,1.4-0.2,2.4-0.7,3c-0.6,0.7-1.4,1.1-2.5,1.1
		c-1.2,0-2-0.4-2.5-1.1c-0.4-0.6-0.6-1.6-0.6-2.9v-7.6c0-0.1,0-0.2,0.1-0.3c0.1-0.1,0.2-0.1,0.3-0.1h0.9c0.1,0,0.3,0.1,0.4,0.2
		c0.1,0.1,0.1,0.2,0.1,0.3v7.9c0,0.7,0.1,1.2,0.3,1.5c0.2,0.3,0.5,0.5,1,0.5c0.5,0,0.8-0.2,1-0.5c0.2-0.3,0.3-0.8,0.3-1.5v-7.9
		c0-0.1,0.1-0.2,0.1-0.3c0.1-0.1,0.2-0.2,0.3-0.2h0.9c0.1,0,0.2,0.1,0.3,0.2c0.1,0.1,0.1,0.2,0.1,0.4V213.1L138.1,213.1z
		 M160.2,213.2c0,2.6-1.1,3.9-3.3,3.9c-1.2,0-2.1-0.4-2.7-1.3c-0.3-0.4-0.4-1-0.5-1.6c0-0.3-0.1-0.9-0.1-1.7v-3.3
		c0-0.8,0-1.4,0.1-1.7c0.1-0.6,0.3-1.2,0.6-1.6c0.6-0.7,1.4-1.1,2.6-1.1c1,0,1.8,0.3,2.4,1c0.6,0.6,0.9,1.5,0.9,2.7
		c0,0.1,0,0.2-0.1,0.3c-0.1,0.1-0.2,0.1-0.4,0.1h-0.9c-0.1,0-0.2,0-0.3-0.1c-0.1-0.1-0.2-0.2-0.2-0.3c-0.1-1.3-0.5-1.9-1.4-1.9
		c-0.5,0-0.9,0.2-1.1,0.5c-0.2,0.4-0.3,1-0.3,1.8v3.9c0,1,0.1,1.6,0.3,2c0.2,0.4,0.6,0.6,1.1,0.6c0.9,0,1.4-0.7,1.5-2.2
		c0-0.1,0-0.2,0.1-0.3c0.1-0.1,0.2-0.1,0.3-0.1h0.9c0.2,0,0.3,0,0.4,0.1C160.1,213,160.2,213.1,160.2,213.2L160.2,213.2z
		 M182.3,206.4c0,0.1-0.1,0.2-0.2,0.3c-0.1,0.1-0.2,0.2-0.3,0.2h-1.4c-0.1,0-0.2,0.1-0.3,0.2c-0.1,0.1-0.1,0.2-0.1,0.3v9.1
		c0,0.1-0.1,0.2-0.2,0.3c-0.1,0.1-0.2,0.2-0.3,0.2h-0.9c-0.1,0-0.2-0.1-0.3-0.2c-0.1-0.1-0.1-0.2-0.1-0.3v-9.2c0-0.1,0-0.2-0.1-0.3
		c-0.1-0.1-0.2-0.2-0.3-0.2h-1.4c-0.1,0-0.2-0.1-0.3-0.2c-0.1-0.1-0.2-0.2-0.2-0.3v-0.9c0-0.1,0-0.2,0.1-0.3
		c0.1-0.1,0.2-0.2,0.3-0.2h5.5c0.1,0,0.2,0.1,0.3,0.2c0.1,0.1,0.2,0.2,0.2,0.3V206.4L182.3,206.4z M199.9,216.5
		c0,0.1-0.1,0.2-0.2,0.3c-0.1,0.1-0.2,0.2-0.3,0.2h-0.9c-0.1,0-0.2-0.1-0.3-0.2c-0.1-0.1-0.2-0.2-0.2-0.3v-11c0-0.1,0.1-0.2,0.2-0.3
		c0.1-0.1,0.2-0.2,0.3-0.2h0.9c0.1,0,0.2,0.1,0.3,0.2c0.1,0.1,0.2,0.2,0.2,0.3V216.5L199.9,216.5z M222.2,213.2
		c0,1.3-0.2,2.2-0.7,2.8c-0.6,0.8-1.5,1.2-2.6,1.2c-1.2,0-2-0.4-2.6-1.2c-0.5-0.7-0.7-1.6-0.7-2.8v-4.3c0-1.3,0.2-2.2,0.7-2.8
		c0.6-0.8,1.4-1.1,2.6-1.1c1.2,0,2.1,0.4,2.6,1.1c0.5,0.7,0.7,1.6,0.7,2.8V213.2L222.2,213.2z M220.3,213.1v-4.3
		c0-0.9-0.1-1.5-0.3-1.8c-0.2-0.3-0.6-0.5-1.1-0.5c-0.5,0-0.9,0.2-1.1,0.5c-0.2,0.3-0.3,0.9-0.3,1.8v4.3c0,0.8,0.1,1.4,0.3,1.8
		c0.2,0.3,0.6,0.5,1.1,0.5c0.5,0,0.9-0.2,1.1-0.5C220.2,214.6,220.3,214,220.3,213.1L220.3,213.1z M244.7,216.5
		c0,0.1-0.1,0.2-0.2,0.3c-0.1,0.1-0.2,0.2-0.3,0.2h-0.9c-0.2,0-0.4-0.1-0.5-0.2c0-0.1-0.1-0.2-0.2-0.3l-2.6-6.2
		c-0.1-0.1-0.1-0.2-0.1-0.2c0,0-0.1,0.1-0.1,0.2v6.2c0,0.1,0,0.2-0.1,0.3c-0.1,0.1-0.2,0.2-0.3,0.2h-0.9c-0.1,0-0.2-0.1-0.3-0.2
		c-0.1-0.1-0.1-0.2-0.1-0.3v-11c0-0.1,0-0.2,0.1-0.3c0.1-0.1,0.2-0.2,0.3-0.2h0.9c0.2,0,0.3,0.1,0.5,0.2c0.1,0.1,0.1,0.2,0.2,0.3
		l2.6,6.2c0.1,0.1,0.1,0.2,0.2,0.2c0,0,0-0.1,0-0.2v-6.2c0-0.1,0.1-0.2,0.1-0.3c0.1-0.1,0.2-0.2,0.3-0.2h0.9c0.1,0,0.2,0,0.4,0.1
		c0.1,0.1,0.1,0.2,0.1,0.4V216.5L244.7,216.5z M267.3,214.1c0,0.9-0.3,1.6-0.9,2.2c-0.6,0.6-1.4,0.8-2.4,0.8c-1.9,0-3.1-1-3.5-2.9
		c0-0.1,0-0.2,0.1-0.4c0.1-0.1,0.2-0.1,0.4-0.2l0.7-0.2c0.2-0.1,0.4-0.1,0.5,0c0.1,0,0.1,0.2,0.2,0.4c0.3,1.1,0.9,1.7,1.8,1.7
		c0.4,0,0.7-0.1,1-0.4c0.2-0.3,0.4-0.6,0.4-1c0-0.4-0.1-0.7-0.4-1c-0.2-0.3-0.7-0.8-1.4-1.3l-1.2-1c-0.4-0.3-0.7-0.7-1-1
		c-0.4-0.6-0.7-1.2-0.7-2c0-0.9,0.3-1.6,0.9-2.1c0.6-0.5,1.3-0.8,2.2-0.8c1.6,0,2.6,0.8,3.2,2.5c0,0.1,0,0.2,0,0.4
		c0,0-0.1,0.1-0.3,0.3l-0.8,0.2c-0.2,0-0.3,0-0.4,0c-0.1,0-0.2-0.1-0.2-0.3c-0.3-0.9-0.8-1.3-1.5-1.3c-0.3,0-0.6,0.1-0.9,0.4
		c-0.2,0.2-0.3,0.5-0.3,0.9c0,0.6,0.4,1.2,1.2,1.9l0.8,0.7c0.6,0.5,1,0.8,1.2,0.9c0.3,0.2,0.5,0.5,0.6,0.7
		C267,212.5,267.3,213.3,267.3,214.1L267.3,214.1z"/>
	<path id="one_eyed_pie" class="st3" d="M14.2,185.2c-7.5,0-14.2-4.1-14.2-13.4c0-9,6-13.4,14.7-13.4c8.3,0,14.1,4.6,14.1,13.4
		C28.8,180.7,22.5,185.2,14.2,185.2z M14.5,180.6c3.1,0,3.7-3.6,3.7-8.7s-0.6-8.9-3.7-8.9c-3.2,0-3.9,3.8-3.9,8.9
		S11.3,180.6,14.5,180.6z M49.4,180.1c0.4,0,0.9,0,0.9-1.8v-11.2c0-2-1.4-2.9-3.1-2.9c-2.5,0-4.4,1.6-4.4,4.2v9.9
		c0,0.9,0.1,1.9,1,1.9h1.9v4.3H29.2v-4.3h2.7c0.4,0,1,0,1-1.8v-13.4c0-0.9-0.4-1.2-1-1.2h-2.6v-4.3l13.4-0.4l-0.3,4.3
		c1.8-3.6,5.1-4.7,8.9-4.7c4.1,0,8.9,1.9,8.9,6.7v13.1c0,0.9,0.1,1.9,1,1.9h2.6v4.3H47.6v-4.3H49.4z M78.4,158.4
		c9.4,0,14.2,5.4,14.2,14.6H74.6c0,4.6,1.6,7.2,6.4,7.2c3.6,0,5.4-1.1,6.3-4.5h5.1c-0.4,7.1-7.7,9.5-13.7,9.5
		c-8.6,0-14.7-4.1-14.7-13.4C63.9,163.1,70,158.4,78.4,158.4z M74.7,168.6H82c0-2.3-0.5-5.7-3.6-5.7C75.7,163,74.7,166.3,74.7,168.6
		z M116.5,158.4c9.4,0,14.2,5.4,14.2,14.6h-18.1c0,4.6,1.6,7.2,6.4,7.2c3.6,0,5.4-1.1,6.3-4.5h5.1c-0.4,7.1-7.7,9.5-13.7,9.5
		c-8.6,0-14.7-4.1-14.7-13.4C102,163.1,108.1,158.4,116.5,158.4z M112.7,168.6h7.3c0-2.3-0.5-5.7-3.6-5.7
		C113.7,163,112.7,166.3,112.7,168.6z M135.8,185.9c2.3,0,4.2,1.3,4.2,3.8c0,1.5-0.7,2.3-2,3c0.2,0.2,0.6,0.4,1.2,0.4
		c2.4,0,4.2-1.9,5.3-5.5c0,0,0-0.1-9.8-22.7c-0.5-1.1-1.6-1.3-2.7-1.3l-1.2,0v-4.2h17.5v4.2H147c-1.9,0-2.2,0-2.2,0.8
		c0,0.6,1.1,3.2,4.3,10.6l0.4,2.3l0.5-2.2c3.8-8.5,4.4-10.2,4.4-10.6c0-0.5-0.1-0.8-1.2-0.8h-2.9v-4.2h12.9v4.2H161
		c-1.9,0-1.8,1.8-13,27.7c-1.7,3.8-5.4,5.7-9.4,5.7c-3.9,0-7.9-1.9-7.9-6.2C130.6,187.6,132.7,185.9,135.8,185.9z M177.2,158.4
		c9.4,0,14.2,5.4,14.2,14.6h-18.1c0,4.6,1.6,7.2,6.4,7.2c3.6,0,5.4-1.1,6.3-4.5h5.1c-0.4,7.1-7.7,9.5-13.7,9.5
		c-8.6,0-14.7-4.1-14.7-13.4C162.7,163.1,168.8,158.4,177.2,158.4z M173.4,168.6h7.3c0-2.3-0.5-5.7-3.6-5.7
		C174.4,163,173.4,166.3,173.4,168.6z M204.8,158.4c1.9,0,4.9,0.3,7.2,3.6l-0.5-1.8V154c0-1-0.2-1.6-1.2-1.6h-2.9v-4.3l14-0.8v31.7
		c0,0.5,0.5,1,1,1h2.6v4.3h-13.4v-2.5c-1.7,2.5-4.7,3.4-7.6,3.4c-8,0-10.9-6.6-10.9-13.7C193.1,164.3,197,158.4,204.8,158.4z
		 M203.8,172.1c0,6.4,0.7,8.5,3.8,8.5c3.8,0,4.1-4.9,4.1-8.6c0-3,0-8.9-3.9-8.9C204.6,163,203.8,165.7,203.8,172.1z M235.2,192.4
		c0.4,0,1,0,1-1.8v-26c0-0.5-0.5-1-1-1h-2.6v-4.2l13.5-0.4l-0.4,3.1c1.9-2.5,4.9-3.6,7.9-3.6c8,0,10.8,6.6,10.8,13.7
		c0,7.3-3.9,13.2-11.7,13.2c-1.9,0-4.9-0.3-7.1-3.6l0.5,2.3v6.6c0,0.9,0.1,1.9,1,1.9h3.1v4.3h-17.5v-4.3H235.2z M253.7,171.5
		c0-6.4-0.7-8.5-3.8-8.5c-3.7,0-4.1,4.9-4.1,8.6c0,3,0,8.9,3.9,8.9C252.9,180.5,253.7,177.9,253.7,171.5z M267.9,180.1
		c0.4,0,0.9,0,0.9-1.8v-13.4c0-0.8-0.6-1.2-1.2-1.2h-2.5v-4.3l13.7-0.6v19.5c0,0.9,0,1.9,1,1.9h2.5v4.3h-17.2v-4.3H267.9z
		 M273.6,146.7c2.7,0,4.8,2.3,4.8,5.1s-2.2,5-4.9,5c-2.6,0-5.1-2.1-5.1-5S270.8,146.7,273.6,146.7z M296.9,158.4
		c9.4,0,14.2,5.4,14.2,14.6h-18.1c0,4.6,1.6,7.2,6.4,7.2c3.6,0,5.4-1.1,6.3-4.5h5.1c-0.4,7.1-7.7,9.5-13.7,9.5
		c-8.6,0-14.7-4.1-14.7-13.4C282.4,163.1,288.5,158.4,296.9,158.4z M293.2,168.6h7.3c0-2.3-0.5-5.7-3.6-5.7
		C294.1,163,293.2,166.3,293.2,168.6z"/>
	<g id="pie">
		<path id="dog_outline_10_" class="st3" d="M214.4,135.5c-2.4,0-4.8-0.6-7-1.9c-4.2-2.4-6.8-6.1-7.2-10.7c-0.1-0.6-0.1-1.3-0.1-1.9
			l0-0.1c0.2-3.5,1.9-7.1,4.4-9.5c2-1.9,4.6-3.1,7.8-3.6c3.5-0.5,6.9,0.2,9.7,2.2c2.4,1.6,4.3,4,5.4,6.4l0,0c1.8,4,1.4,8.6-1.1,12.3
			c-2.2,3.4-5.9,5.8-9.7,6.5C215.9,135.5,215.2,135.5,214.4,135.5z M161.9,126.5c-3.4,0-6.4-1-8.9-3.1c-1.7-1.4-3.1-3.2-4.2-5.6
			c0-0.1-0.1-0.2-0.1-0.3c-3.7,1.2-7.5,1.5-10.8,1.7c-0.1,0.8-0.4,1.5-0.8,2.2c-1.2,2-3.6,3.5-6.4,3.9c-5.9,1-11.9,0.9-19-0.4
			c-3-0.6-5.7-1.5-7.9-2.9c-0.9-0.5-1.8-1.2-2.5-1.8c-2,0-3.9-0.2-5.8-0.5c-2.5-0.4-5-1-7.6-1.8c-3.9-1.3-6-4.5-5.2-7.8
			c0.7-2.9,3.4-5,6.4-5c0,0,0.1,0,0.1,0c1.2,0,3.4-0.1,6.2-0.3c0.5,0,0.9-0.1,1.4-0.1c0.7-2.5,1.9-4.9,3.6-7.3
			c-2-12.1-1.7-25,0.9-37.3c2.8-13.2,7.9-24.6,15-33.9c6.4-8.4,14.9-15.6,24.5-20.8c14.2-7.8,28.7-6.7,39.7,3
			c6.9,6.1,12.5,14.8,15.9,24.5c4.5,2,7.7,4.7,9.6,8.2c0.6,1.1,2.5,5,1,8.3c-0.5,1.1-1.7,2.6-4.2,3.1c-1.1,0.2-2.1,0.2-3.1,0
			c0,0.6,0,1.3,0,1.9c-0.2,5.6-1.3,11-3.1,16c-1.1,2.9-2.5,5.4-4.2,7.4c1.2,1.6,1.6,3.9,0.8,6.3c-0.9,2.8-2.8,4.7-5.8,5.5
			c-1,0.3-2.2,0.4-3.4,0.3c0.3,0.8,0.6,1.7,0.9,2.6c1.4,3.9,3,8.1,5,13.2c0,0,0,0,0,0c2.5,0.4,5,1.8,6.6,3.7c1.7,2,2.2,4.3,1.6,6.5
			c-0.6,2.3-2.5,4.1-5.2,5c-5.2,1.8-10.6,1.2-14.5-1.7c-1.7-1.3-3.1-3-4-5c-1.9-4.1-3.2-7.3-4.5-10.5c-0.4-1-0.8-2-1.2-3.1
			c-0.7,1.3-1.4,2.5-2.2,3.7c0.3,0.2,0.6,0.4,0.9,0.6c1.2,0.8,2.1,1.9,2.9,3.3c0.9,1.7,1.2,3.6,0.7,5.2c0.2,0.2,0.4,0.4,0.6,0.6
			c1.7,2,2.3,4.3,1.7,6.5c-0.6,2.3-2.6,4.2-5.3,5.1C166,126.1,163.9,126.5,161.9,126.5z"/>
		<path id="dog_background_fill_5_" class="st2" d="M214.5,111.2c-0.5,0-1.1,0-1.7,0.1c-2.5,0.4-4.5,1.3-6,2.7
			c-1.9,1.7-3.2,4.5-3.3,7.2c0,0.5,0,1,0,1.4c0.4,3.4,2.3,6.2,5.5,8c2.2,1.2,4.7,1.7,7,1.3c2.9-0.5,5.7-2.4,7.4-5
			c1.8-2.8,2.1-6,0.8-9v0c-0.8-1.9-2.4-3.7-4.2-5C218.4,111.8,216.5,111.2,214.5,111.2z M150.5,113.1l0.4,0.8
			c0.4,0.8,0.7,1.6,1.1,2.4c0.9,2,1.9,3.4,3.2,4.4c3,2.5,7.2,2.9,11.8,1.4c1.6-0.5,2.7-1.5,3-2.7c0.3-1.1,0-2.2-1-3.4
			c-0.4-0.5-0.9-0.9-1.5-1.3l-0.8-0.6l0.6-0.8c1.1-1.4,0.4-3,0-3.7c-0.5-0.9-1-1.5-1.7-2c-0.8-0.5-1.9-1.1-3.2-1.5l-1.4-0.4l0.9-1.1
			c2.7-3.2,4.8-7,6.2-11.3l0.9-2.8l0.9,2.8c1.2,3.5,2.2,6.3,3.2,9.1c1.2,3.2,2.6,6.3,4.4,10.4c0.7,1.5,1.7,2.7,2.9,3.7
			c2.9,2.1,7.2,2.6,11.3,1.2c1.5-0.5,2.6-1.5,3-2.7c0.3-1.1,0-2.2-0.9-3.3c-1.1-1.3-2.8-2.3-4.4-2.5c-1.3-0.2-2.2-0.9-2.6-1.9
			c-2.1-5.3-3.7-9.6-5.1-13.6c-1.6-4.5-2.9-8.4-4-12.1l-0.4-1.3l1.3,0c0.8,0,1.5,0,2.2-0.1l1.8-0.2l-0.8,1.6
			c-0.3,0.5-0.5,1.1-0.6,1.7c-0.2,1,0,1.7,0.6,2.2c1,0.9,2.9,1.1,4.5,0.6c1.8-0.5,2.9-1.6,3.4-3.2c0.5-1.6,0.3-3.5-1.6-4.1l-1.7-0.5
			l1.4-1.1c2.2-1.8,4-4.6,5.4-8.1c1.7-4.6,2.7-9.6,2.9-14.9c0.1-1.6,0-3.3-0.1-5l-0.1-1.4l1.4,0.5c1.5,0.5,3.2,1.1,4.7,0.8
			c0.9-0.2,1.4-0.6,1.7-1.2c0.6-1.3,0-3.5-0.9-5.1c-1.7-3-4.6-5.4-9-7.2l-0.4-0.2l-0.1-0.4c-3.2-9.6-8.6-18.2-15.3-24.1
			c-10-8.8-22.6-9.7-35.7-2.5c-9.2,5-17.3,11.9-23.4,19.9c-6.8,8.9-11.6,19.9-14.4,32.5c-2.6,12.2-2.8,25-0.7,37l0.1,0.4l-0.3,0.3
			c-2.1,2.8-3.5,5.7-4,8.5l-0.1,0.7l-0.7,0.1c-1.1,0.1-2.2,0.2-3.2,0.3c-3,0.2-5.2,0.4-6.6,0.3c-1.4,0-2.8,1-3.1,2.3
			c-0.5,2,1.6,3.3,3,3.8c2.3,0.8,4.7,1.3,7,1.7c2,0.3,4.1,0.4,6.2,0.5l0.4,0l0.3,0.3c0.7,0.7,1.6,1.4,2.6,2c1.9,1.1,4.2,2,6.8,2.4
			c6.7,1.2,12.3,1.4,17.8,0.4c1.8-0.3,3.3-1.2,4-2.3c0.4-0.7,0.5-1.6,0.2-2.5l-0.4-1.3l1.4,0c4.1,0,9.5-0.3,14.4-2.3L150.5,113.1z"
			/>
		<path id="dog_contract_colour_5_" class="st4" d="M215.4,113.8c-2.7-1.6-9.8,2-8.8,5.6c0.7,2.6,5.3,2.1,7.1,1.3
			c1.4-0.7,2.7-1.7,3.2-2.9C217.7,115.9,217.4,114.4,215.4,113.8L215.4,113.8z M143.6,15c-23.9,12.4-38.6,39.5-36.3,66.5
			c1,11.5,5.7,20.7,13.7,24.9c15.1,8,36.7-4.3,50.2-27.5c-9.7-3.6-19.2-11.7-22.6-21.8c-0.3-1,0.6-1.4,1.2-0.5
			c4.3,6.9,8.8,12.8,16.2,16.7c5.1,2.7,11.2,3.9,16.6,1.3c5.7-2.7,9.2-8.7,10.4-16.3c2.3-15.1-4.5-29.4-15.6-39.5
			C167.6,9.9,155.3,8.9,143.6,15L143.6,15z M203,46.8c-0.4-1.6-5.3-5.4-7.5-5.4l0.7,5.4l4.1,1.4C201.9,48.7,203.8,48.2,203,46.8
			L203,46.8z M188.1,80.9c-2.1-0.7-6.2,2.8-5,5c0.9,1.6,3.9,0.6,4.9-0.2c0.8-0.6,1.5-1.6,1.7-2.4C189.9,82,189.5,81.1,188.1,80.9
			L188.1,80.9z M94.1,110.8c0.7,1.3,5,3.5,6.5,2.7l-1.8-4.9l-3.2,0C94.4,108.7,93.2,109.7,94.1,110.8L94.1,110.8z M143.8,39.4
			c-4.2-0.5-8-0.2-11.4,2.6c-3.1,2.6-4.7,6.6-4.3,10.9c0.1,1.3,1.9,4.6,4.6,2.7c-1.2-4.6,0.8-13.2,11.3-14.4
			C145.7,41,145.8,39.7,143.8,39.4L143.8,39.4z M162.7,45.6c4.9-3.3,12.3-0.9,16.4,5.3c4.1,6.2,3.4,13.9-1.5,17.2
			c-4.9,3.3-12.3,0.9-16.4-5.3C157.1,56.6,157.8,48.9,162.7,45.6L162.7,45.6z"/>
		<path class="st1" d="M225.5,117.4c-0.9-2.1-2.7-4.2-4.7-5.5c-2.4-1.7-5.2-2.3-8.2-1.8c-2.8,0.4-5,1.4-6.7,3
			c-2.1,2-3.6,5.1-3.7,8.1c0,0.5,0,1.1,0,1.7c0.4,3.8,2.6,7,6.2,9c1.9,1.1,3.9,1.6,6,1.6c0.6,0,1.3-0.1,1.9-0.2
			c3.2-0.6,6.4-2.7,8.3-5.6C226.7,124.5,227,120.8,225.5,117.4z M222,125.9c-1.4,2.2-3.8,3.8-6.2,4.2c-2,0.4-4,0-5.9-1.1
			c-2.7-1.5-4.3-3.9-4.6-6.7c0-0.4-0.1-0.8,0-1.2c0.1-2.1,1.2-4.5,2.7-5.9c1.2-1.1,2.9-1.9,5-2.2c0.5-0.1,0.9-0.1,1.4-0.1
			c1.6,0,3.2,0.5,4.6,1.4c1.5,1.1,2.9,2.7,3.6,4.2C223.7,121,223.5,123.7,222,125.9z M148.4,45.2c0.2,0.3,0.3,0.8,0.3,1.2
			c-0.1,0.4-0.3,0.8-0.6,1c-1.9,1.3-3.8,2.8-5.6,4.1c-2.1,1.6-4.3,3.2-6.5,4.8c-1.4,0.9-2.9,1.4-4.3,1.4c-0.6,0-1.2-0.1-1.8-0.3
			c-1.5-0.5-2.6-1.7-3.1-3.4c-0.5-1.5-0.5-3.4,0-5.4c0.9-3.9,2.9-6.8,6-8.8c3.2-2,7.6-3,13.1-3c0.9,0,1.6,0.7,1.6,1.6
			c0,0.4-0.2,0.8-0.5,1.1c-0.3,0.3-0.7,0.5-1.1,0.5c-0.2,0-0.3,0-0.4,0c-4.7,0-8.4,0.8-11,2.5c-2.4,1.5-3.9,3.8-4.6,6.8
			c-0.3,1.5-0.4,2.8-0.1,3.8c0.2,0.8,0.6,1.3,1.2,1.5c0.8,0.3,2,0,3.2-0.8c2.2-1.5,4.3-3.1,6.4-4.7c1.8-1.4,3.7-2.8,5.6-4.2
			c0.3-0.2,0.8-0.3,1.2-0.3C147.8,44.7,148.1,44.9,148.4,45.2z M202.5,50.2c1.3-0.3,2.2-0.9,2.7-1.9c0.9-1.9,0-4.6-1-6.3
			c-1.8-3.3-4.9-5.8-9.5-7.7c-3.3-9.8-8.8-18.5-15.6-24.5C168.6,0.5,155.4-0.4,141.9,7c-9.3,5.1-17.6,12.1-23.8,20.3
			c-6.9,9.1-11.8,20.2-14.6,33.1c-2.6,12.3-2.9,25.3-0.7,37.4c-2.2,2.8-3.5,5.8-4.1,8.7c-1,0.1-1.9,0.2-2.9,0.3
			c-2.9,0.2-5.2,0.4-6.4,0.3c0,0-0.1,0-0.1,0c-2,0-3.9,1.4-4.4,3.4c-0.6,2.6,1.5,4.6,3.8,5.3c2.4,0.8,4.8,1.4,7.2,1.8
			c2,0.3,4.1,0.5,6.3,0.5c0.8,0.8,1.7,1.5,2.8,2.1c2,1.2,4.5,2.1,7.2,2.6c6.8,1.3,12.7,1.4,18.3,0.4c2.2-0.4,4-1.5,4.9-2.9
			c0.6-0.9,0.7-2,0.5-3.1c4.1,0,9.2-0.3,14.1-2.2c0.3,0.7,0.6,1.4,0.9,2c1,2.2,2.2,3.7,3.6,4.9c2.1,1.7,4.7,2.6,7.6,2.6
			c1.8,0,3.6-0.3,5.6-1c2-0.7,3.5-2,3.9-3.7c0.4-1.5,0-3.1-1.2-4.6c-0.4-0.5-0.9-1-1.5-1.4c0.9-1.4,0.8-3.1-0.1-4.8
			c-0.6-1.1-1.3-1.9-2.2-2.5c-0.8-0.5-1.8-1-3-1.5c2.4-3,4.4-6.4,5.8-10.3c1,3,2,5.6,2.9,8.1c1.2,3.2,2.6,6.3,4.4,10.4
			c0.7,1.7,1.9,3.1,3.3,4.2c3.3,2.4,8,3,12.5,1.4c2-0.7,3.4-2,3.8-3.6c0.4-1.5,0-3.1-1.2-4.5c-1.3-1.5-3.3-2.7-5.3-3
			c-0.8-0.1-1.4-0.5-1.6-1c-2-5.2-3.7-9.6-5.1-13.6c-0.9-2.6-1.7-4.9-2.5-7.2c0.1,0.2,0.3,0.4,0.5,0.6c1.5,1.4,4.1,1.4,5.8,0.9
			c2.2-0.6,3.7-2,4.3-4.1c0.6-2.1,0.3-4.5-1.9-5.5c2.2-2,4-4.8,5.3-8.3c1.8-4.8,2.8-9.9,3-15.3c0.1-1.5,0.1-3,0-4.6
			C199.1,50.1,200.8,50.5,202.5,50.2z M202.2,46.8c-0.2,0.3-0.7,0.4-1.4,0.3c-1.2-0.1-2.5-0.6-3.5-1c-0.3-2.6-0.8-5.2-1.4-7.8
			c0.7,0.4,1.3,0.7,1.8,1.1c1.6,1.1,2.8,2.5,3.7,4C202.3,45,202.6,46.3,202.2,46.8z M183.5,82.4c0.8-1.7,2.6-2.5,4.3-1.9
			c0.5,0.2,0.6,0.4,0.7,0.6c0.1,0.3,0,0.7-0.1,1.2c-0.3,1-1.1,1.7-2.3,2.1c-1.1,0.4-2.2,0.3-2.7-0.1C183,83.8,183.2,83,183.5,82.4z
			 M181.6,78.2c-8.7,1.6-19.4-3.9-25.1-10c-2.9-3-5.4-6.7-7.9-11.7c-0.2-0.4-0.5-0.7-0.9-0.8c-0.4-0.1-0.8-0.1-1.2,0.1
			c-0.4,0.2-0.7,0.5-0.8,0.9c-0.1,0.4-0.1,0.8,0.1,1.2c2.6,5.2,5.3,9.2,8.4,12.5c5.5,5.9,13.6,10,21.7,11c1.1,3.9,2.5,8,4.2,12.8
			c1.8,5,3.7,9.9,5.1,13.7c0.6,1.6,2.1,2.7,4,3c1.2,0.2,2.5,0.9,3.3,1.9c0.5,0.6,0.7,1.2,0.6,1.7c-0.2,0.6-0.8,1.1-1.8,1.5
			c-3.5,1.2-7.2,0.9-9.6-0.9c-1-0.7-1.8-1.7-2.3-2.9c-1.6-3.4-3-6.9-4.4-10.3c-1.7-4.3-3.1-8.6-4.3-12.3c0.5-2.1,0.7-3.7,0.9-5.2
			c0.1-0.9-0.4-1.8-1.4-1.9c-0.4,0-0.8,0.1-1.2,0.3c-0.3,0.3-0.5,0.6-0.6,1.1c-0.8,8-3.7,14.9-8.1,20c-1.3-3.4-2.3-6.3-3.3-9.1
			c-2.2-6.2-3.8-11.6-5-16.4c-0.2-0.8-1.1-1.4-1.9-1.1c-0.4,0.1-0.7,0.4-1,0.7c-0.2,0.4-0.3,0.8-0.2,1.2c1.2,4.8,2.9,10.3,5.1,16.7
			c2.1,6,4.3,11.8,6.2,16.6c0.6,1.6,2.1,2.7,4.1,3c1.3,0.2,2.6,0.9,3.4,1.9c0.6,0.7,0.8,1.3,0.6,1.8c-0.2,0.6-0.8,1.1-1.9,1.5
			c-4,1.4-7.6,1-10.1-1.1c-0.9-0.8-1.7-1.8-2.4-3.1c-1.7-3.7-3-6.6-3.7-8.2c-1.1-2.6-2.1-5-3.1-7.5c-0.2-0.4-0.4-0.7-0.8-0.9
			c-0.2-0.1-0.4-0.1-0.6-0.1c-0.2,0-0.4,0-0.6,0.1c-0.4,0.2-0.7,0.4-0.9,0.8c-0.2,0.4-0.2,0.8,0,1.2c1,2.5,2,5,3.2,7.6
			c0.4,0.9,0.8,1.8,1.2,2.7c-4.7,1.8-9.7,2-14.5,1.9c-0.9-0.9-2-1.5-2.9-1.8c-3-1.3-8.2-2.3-12.4-1.4c-0.4,0.1-0.8,0.3-1,0.7
			c-0.2,0.4-0.3,0.8-0.2,1.2c0.2,0.8,1,1.4,1.9,1.2c3.4-0.7,7.8,0.1,10.5,1.2c1.7,0.8,2.6,1.7,2.8,2.9c0.3,1.5-2.1,2-2.8,2.2
			c-5.3,0.9-10.6,0.8-17.2-0.4c-3.5-0.7-6.4-2-8.4-3.9c-4.4-4.3-2.9-10.5,0-14.9c0.9-1.3,1.9-2.6,3.2-3.9c0.3-0.3,0.5-0.7,0.4-1.1
			c0-0.4-0.2-0.8-0.5-1.1c-0.3-0.3-0.7-0.4-1.1-0.4c0,0,0,0,0,0c-0.4,0-0.7,0.1-1,0.4c-1.6-11-1.3-22.6,1.1-33.6
			c2.6-12.4,7.3-23,13.9-31.7c5.9-7.8,13.8-14.5,22.7-19.5c12.5-6.9,24.6-6.1,34.1,2.4c6.2,5.6,11.3,13.6,14.4,22.6
			c3.8,11.1,3.9,22.8,0.3,33C189.8,73.8,186.3,77.3,181.6,78.2z M166.2,111.7c0,0.2-0.2,0.4-0.3,0.6c-0.3-0.1-0.7-0.2-1-0.2
			c-0.6-0.1-1.4-0.3-1.6-1c-0.4-1.1-0.8-2.2-1.3-3.3c1.1,0.4,2.1,0.8,2.8,1.3c0.5,0.3,0.8,0.7,1.2,1.4
			C166.1,110.9,166.3,111.4,166.2,111.7z M89.2,110.2C89.2,110.2,89.2,110.2,89.2,110.2c1.8,0,4.7-0.2,6.8-0.3c0.5,0,1-0.1,1.5-0.1
			c0.3,0,0.7-0.1,1-0.1c0.1,1.8,0.5,3.6,1.3,5.1c-1.1-0.1-2.3-0.2-3.4-0.4c-2.2-0.3-4.5-0.9-6.7-1.6c-0.6-0.2-1.9-0.7-1.8-1.7
			C88,110.5,88.6,110.2,89.2,110.2z M180.5,81.5c-0.2,0.5-0.3,1-0.4,1.5c-0.1,0.3-0.1,0.6-0.1,0.9c-0.3-0.8-0.5-1.6-0.7-2.4
			C179.7,81.5,180.1,81.5,180.5,81.5z M173.3,50.1c0.6,0.6,0.7,1.6,0.1,2.2l-1.6,1.8l1.1,1.4c0.3,0.3,0.4,0.7,0.3,1.2
			s-0.3,0.8-0.6,1c-0.7,0.5-1.7,0.4-2.2-0.3l-0.7-0.9l-1.2,1.3c-0.3,0.3-0.7,0.5-1.1,0.5c0,0-0.1,0-0.1,0c-0.4,0-0.8-0.1-1-0.4
			c-0.6-0.6-0.7-1.6-0.1-2.2l1.6-1.8l-1.3-1.7c-0.3-0.3-0.4-0.7-0.3-1.2c0.1-0.4,0.3-0.8,0.6-1c0.3-0.3,0.7-0.4,1.2-0.3
			c0.4,0.1,0.8,0.3,1,0.6l1,1.2l1.2-1.3C171.7,49.5,172.7,49.5,173.3,50.1z M213.6,116.5c-0.2,0.6-0.8,1.1-1.6,1.5
			c-0.4,0.2-1,0.3-1.6,0.3c-0.4,0-0.8-0.1-1.2-0.2c-0.4-0.2-0.7-0.5-0.8-0.9c-0.2-0.7,0.1-1.4,0.9-2.1c0.9-0.8,2.5-1.3,3.5-0.8l0,0
			C213.8,114.7,214,115.5,213.6,116.5z"/>
	</g>
</g>
</svg>
